#N canvas 0 93 1366 675 10;
#X text 10 79 Amplification;
#X text -100 122 filtrage de la Fq DebitMetre;
#X obj 122 129 lop~ 75, f 10;
#X obj 123 154 hip~ 50, f 10;
#X obj 116 80 *~ 3.2;
#X text -23 177 Génération d'un bang toutes les périodes;
#X obj 111 222 sig~ 1;
#X obj -76 333 loadbang;
#X obj 119 269 samplerate~;
#X obj 72 246 rzero~ 1;
#X obj 88 321 *~ 1;
#X obj 119 293 * 0.01;
#X obj 178 504 timer;
#X obj 128 434 + 1;
#X obj 167 436 f;
#X obj 172 458 sel 1;
#X msg 141 488 0;
#X obj 203 479 t b;
#X obj 176 481 t b;
#X text 4 253 Dérivée;
#X obj 726 287 *~ 10;
#X obj 901 562 *~, f 21;
#X obj 120 38 adc~ 3 4 5, f 97;
#X obj 497 529 /~, f 4;
#X obj 528 491 sig~;
#X obj 433 483 sig~ 1000;
#X text 168 294 Jouer sur le threshold ou l'amplification ?;
#X text 510 456 Algo Juste;
#X obj 605 505 sig~ 10;
#X obj 603 531 mtof~;
#X obj 545 560 /~;
#X obj 545 584 expr~ rint($v1);
#X obj 557 615 *~;
#X obj 557 643 phasor~;
#X obj 883 627 dac~ 1 2 27 28 29 30;
#X obj 1005 435 sig~ 0.5;
#X obj 98 365 threshold~ 1 3 1 1;
#X obj 853 472 phasor~;
#X obj 1099 168 vline~;
#X msg 1096 127 0 0;
#X msg 1143 127 1 \$1;
#X obj 1090 83 t b b;
#X obj 1145 106 f;
#X connect 2 0 3 0;
#X connect 3 0 9 0;
#X connect 3 0 34 2;
#X connect 4 0 2 0;
#X connect 6 0 9 1;
#X connect 7 0 8 0;
#X connect 7 0 16 0;
#X connect 8 0 11 0;
#X connect 9 0 10 0;
#X connect 10 0 34 3;
#X connect 10 0 36 0;
#X connect 11 0 10 1;
#X connect 12 0 24 0;
#X connect 12 0 42 1;
#X connect 13 0 14 1;
#X connect 14 0 13 0;
#X connect 14 0 15 0;
#X connect 15 0 16 0;
#X connect 15 0 18 0;
#X connect 15 1 17 0;
#X connect 16 0 14 1;
#X connect 17 0 12 1;
#X connect 18 0 12 0;
#X connect 21 0 34 0;
#X connect 21 0 34 1;
#X connect 22 0 4 0;
#X connect 22 2 20 0;
#X connect 23 0 30 0;
#X connect 23 0 37 0;
#X connect 24 0 23 1;
#X connect 25 0 23 0;
#X connect 28 0 29 0;
#X connect 29 0 30 1;
#X connect 29 0 32 1;
#X connect 30 0 31 0;
#X connect 31 0 32 0;
#X connect 32 0 33 0;
#X connect 35 0 34 4;
#X connect 35 0 21 1;
#X connect 36 0 14 0;
#X connect 36 0 41 0;
#X connect 38 0 21 0;
#X connect 38 0 34 5;
#X connect 39 0 38 0;
#X connect 40 0 38 0;
#X connect 41 0 42 0;
#X connect 41 1 39 0;
#X connect 42 0 40 0;
