#N canvas 1822 252 450 300 10;
#X obj 102 57 adc~ 3 4;
#X obj 89 221 *~;
#X obj 59 275 dac~ 2 1 27 28;
#X obj 153 138 *~ 10;
#X connect 0 0 1 0;
#X connect 0 0 2 2;
#X connect 0 1 3 0;
#X connect 1 0 2 0;
#X connect 1 0 2 1;
#X connect 1 0 2 3;
#X connect 3 0 1 1;
